<svg width="1525" height="508" viewBox="0 0 1525 508" fill="none" xmlns="http://www.w3.org/2000/svg">
<g clip-path="url(#clip0_5_70)">
<path d="M38.719 287V221.9H89.59C104.47 221.9 112.933 229.619 112.933 243.197C112.933 251.009 109.213 256.775 103.447 260.123L113.212 287H89.497L82.708 265.889H61.039V287H38.719ZM90.055 243.848C90.055 239.57 87.823 237.245 83.266 237.245H61.039V250.544H83.266C87.823 250.544 90.055 248.219 90.055 243.848ZM162.393 288.116C134.958 288.116 120.636 276.584 120.636 254.45C120.636 232.316 134.958 220.784 162.393 220.784C189.828 220.784 204.243 232.316 204.243 254.45C204.243 276.584 189.828 288.116 162.393 288.116ZM162.393 272.027C175.32 272.027 181.365 266.54 181.365 254.45C181.365 242.267 175.32 236.78 162.393 236.78C149.466 236.78 143.421 242.267 143.421 254.45C143.421 266.54 149.466 272.027 162.393 272.027ZM215.546 287V221.9H237.866V270.725H276.833V287H215.546ZM284.57 287V221.9H306.89V270.725H345.857V287H284.57ZM353.593 287V221.9H394.513C417.112 221.9 430.039 232.223 430.039 254.45C430.039 276.77 417.019 287 394.42 287H353.593ZM407.161 254.45C407.161 242.267 401.953 237.71 391.351 237.71H375.913V271.19H391.351C401.953 271.19 407.161 266.633 407.161 254.45ZM479.174 288.116C451.739 288.116 437.417 276.584 437.417 254.45C437.417 232.316 451.739 220.784 479.174 220.784C506.609 220.784 521.024 232.316 521.024 254.45C521.024 276.584 506.609 288.116 479.174 288.116ZM479.174 272.027C492.101 272.027 498.146 266.54 498.146 254.45C498.146 242.267 492.101 236.78 479.174 236.78C466.247 236.78 460.202 242.267 460.202 254.45C460.202 266.54 466.247 272.027 479.174 272.027ZM539.668 287L526.276 221.9H548.41L556.594 266.633L566.08 233.525H591.097L601.141 267.935L609.046 221.9H630.808L617.416 287H589.237L578.449 250.172L567.94 287H539.668ZM639.949 287V221.9H666.919L693.796 264.215H693.982V221.9H715.186V287H688.402L661.339 244.499H661.06V287H639.949Z" fill="black"/>
<path d="M735.792 220.893C722.775 239.526 722.698 268.407 735.792 287.107H744.586C731.496 268.407 731.572 239.526 744.586 220.893H735.792Z" fill="black"/>
<path d="M824.128 220.893H815.333C828.35 239.526 828.426 268.407 815.333 287.106H824.128C837.218 268.407 837.142 239.526 824.128 220.893Z" fill="black"/>
<path d="M847.719 288V222.9H888.639C911.238 222.9 924.165 233.223 924.165 255.45C924.165 277.77 911.145 288 888.546 288H847.719ZM901.287 255.45C901.287 243.267 896.079 238.71 885.477 238.71H870.039V272.19H885.477C896.079 272.19 901.287 267.633 901.287 255.45ZM935.542 288V222.9H999.805V238.71H957.862V247.452H999.154V262.797H957.862V272.19H1001.01V288H935.542ZM1029.2 222.9L1046.4 269.772L1063.33 222.9H1086.49L1060.82 288H1031.06L1005.39 222.9H1029.2ZM1114.62 288V238.896H1089.61V222.9H1161.96V238.896H1136.94V288H1114.62ZM1205.89 289.116C1178.46 289.116 1164.13 277.584 1164.13 255.45C1164.13 233.316 1178.46 221.784 1205.89 221.784C1233.33 221.784 1247.74 233.316 1247.74 255.45C1247.74 277.584 1233.33 289.116 1205.89 289.116ZM1205.89 273.027C1218.82 273.027 1224.86 267.54 1224.86 255.45C1224.86 243.267 1218.82 237.78 1205.89 237.78C1192.96 237.78 1186.92 243.267 1186.92 255.45C1186.92 267.54 1192.96 273.027 1205.89 273.027ZM1296.8 289.116C1269.37 289.116 1255.05 277.584 1255.05 255.45C1255.05 233.316 1269.37 221.784 1296.8 221.784C1324.24 221.784 1338.65 233.316 1338.65 255.45C1338.65 277.584 1324.24 289.116 1296.8 289.116ZM1296.8 273.027C1309.73 273.027 1315.77 267.54 1315.77 255.45C1315.77 243.267 1309.73 237.78 1296.8 237.78C1283.88 237.78 1277.83 243.267 1277.83 255.45C1277.83 267.54 1283.88 273.027 1296.8 273.027ZM1349.96 288V222.9H1372.28V271.725H1411.24V288H1349.96ZM1452.9 289.116C1426.3 289.116 1415.05 282.234 1415.05 266.238V266.145H1437.65V266.238C1437.65 271.632 1441.27 274.515 1452.9 274.515C1464.9 274.515 1467.69 272.283 1467.69 268.842C1467.69 265.773 1465.64 264.378 1461.18 264.006L1442.2 262.518C1422.12 260.937 1415.98 254.799 1415.98 243.081C1415.98 228.945 1428.25 221.784 1453.27 221.784C1478.85 221.784 1489.17 228.387 1489.17 243.639V243.825H1466.94V243.639C1466.94 238.245 1463.59 236.199 1452.9 236.199C1441.65 236.199 1438.21 238.245 1438.21 241.872C1438.21 245.034 1440.72 246.243 1446.58 246.708L1465.36 248.103C1483.03 249.405 1490.29 255.078 1490.29 267.261C1490.29 281.304 1479.78 289.116 1452.9 289.116Z" fill="black"/>
<path d="M805.002 222C806.344 222 807.077 223.565 806.217 224.597L791.597 242.143C789.878 244.206 791.343 247.339 794.03 247.339H808.172C809.514 247.339 810.247 248.904 809.387 249.936L781.096 283.888C780.462 284.648 779.295 284.648 778.662 283.888L750.37 249.936C749.511 248.904 750.244 247.339 751.586 247.339H765.724C768.408 247.339 769.877 244.206 768.158 242.143L753.537 224.597C752.677 223.565 753.41 222 754.752 222H805.002Z" fill="#FF4100"/>
<mask id="mask0_5_70" style="mask-type:alpha" maskUnits="userSpaceOnUse" x="750" y="222" width="60" height="63">
<path d="M805.002 222C806.344 222 807.077 223.565 806.217 224.597L791.597 242.143C789.878 244.206 791.343 247.339 794.03 247.339H808.172C809.514 247.339 810.247 248.904 809.387 249.936L781.096 283.888C780.462 284.648 779.295 284.648 778.662 283.888L750.37 249.936C749.511 248.904 750.244 247.339 751.586 247.339H765.724C768.408 247.339 769.877 244.206 768.158 242.143L753.537 224.597C752.677 223.565 753.41 222 754.752 222H805.002Z" fill="black"/>
</mask>
<g mask="url(#mask0_5_70)">
<g filter="url(#filter0_f_5_70)">
<path d="M793.693 250.739C790.089 248.637 794.614 234.164 803.801 218.414C812.987 202.663 823.356 191.599 826.961 193.701C830.565 195.804 826.04 210.276 816.853 226.027C807.667 241.777 797.298 252.841 793.693 250.739Z" fill="#FFE6E4"/>
</g>
<g filter="url(#filter1_f_5_70)">
<path d="M792.085 282.907C788.481 280.804 793.006 266.332 802.193 250.581C811.379 234.831 821.749 223.767 825.353 225.869C828.958 227.971 824.432 242.444 815.246 258.194C806.059 273.945 795.69 285.009 792.085 282.907Z" fill="#FFE6E4"/>
</g>
<g filter="url(#filter2_f_5_70)">
<path d="M768.946 247.639C771.27 245.945 765.093 233.515 755.149 219.875C745.206 206.235 735.261 196.552 732.937 198.246C730.613 199.94 736.79 212.371 746.734 226.01C756.678 239.65 766.622 249.334 768.946 247.639Z" fill="#FF00B3"/>
</g>
<g filter="url(#filter3_f_5_70)">
<path d="M776.988 293.361C779.312 291.667 773.135 279.236 763.191 265.596C753.248 251.957 743.303 242.273 740.979 243.967C738.655 245.661 744.832 258.092 754.776 271.732C764.719 285.371 774.664 295.055 776.988 293.361Z" fill="#FF00B3"/>
</g>
<g filter="url(#filter4_f_5_70)">
<path d="M790.842 247.639C788.518 245.945 794.695 233.515 804.638 219.875C814.582 206.235 824.527 196.552 826.851 198.246C829.175 199.94 822.998 212.371 813.054 226.01C803.11 239.65 793.165 249.334 790.842 247.639Z" fill="#FF00B3"/>
</g>
<g filter="url(#filter5_f_5_70)">
<path d="M781.191 293.361C778.868 291.667 785.045 279.236 794.988 265.596C804.932 251.957 814.877 242.273 817.201 243.967C819.524 245.661 813.347 258.092 803.404 271.732C793.46 285.371 783.515 295.055 781.191 293.361Z" fill="#FF00B3"/>
</g>
<g filter="url(#filter6_f_5_70)">
<path d="M786.017 247.639C783.693 245.945 789.87 233.515 799.814 219.875C809.757 206.235 819.702 196.552 822.026 198.246C824.35 199.94 818.173 212.371 808.229 226.01C798.285 239.65 788.341 249.334 786.017 247.639Z" fill="#FF00B3"/>
</g>
<g filter="url(#filter7_f_5_70)">
<path d="M777.974 293.361C775.65 291.667 781.827 279.236 791.771 265.596C801.715 251.957 811.66 242.273 813.983 243.967C816.307 245.661 810.13 258.092 800.187 271.732C790.243 285.371 780.298 295.055 777.974 293.361Z" fill="#FF00B3"/>
</g>
<g filter="url(#filter8_f_5_70)">
<path d="M775.536 250.105C778.689 247.372 771.566 233.986 759.625 220.206C747.684 206.426 735.448 197.471 732.294 200.203C729.141 202.936 736.264 216.322 748.205 230.102C760.146 243.882 772.382 252.838 775.536 250.105Z" fill="#E23D14"/>
</g>
<g filter="url(#filter9_f_5_70)">
<path d="M778.409 287.57C781.789 285.123 775.865 271.165 765.176 256.393C754.487 241.62 743.082 231.628 739.701 234.074C736.321 236.52 742.245 250.479 752.934 265.251C763.622 280.023 775.028 290.016 778.409 287.57Z" fill="#E23D14"/>
</g>
</g>
</g>
<g clip-path="url(#clip1_5_70)">
<path d="M73.719 96V30.9H114.639C137.238 30.9 150.165 41.223 150.165 63.45C150.165 85.77 137.145 96 114.546 96H73.719ZM127.287 63.45C127.287 51.267 122.079 46.71 111.477 46.71H96.039V80.19H111.477C122.079 80.19 127.287 75.633 127.287 63.45ZM161.542 96V30.9H225.805V46.71H183.862V55.452H225.154V70.797H183.862V80.19H227.014V96H161.542ZM255.198 30.9L272.403 77.772L289.329 30.9H312.486L286.818 96H257.058L231.39 30.9H255.198ZM340.624 96V46.896H315.607V30.9H387.961V46.896H362.944V96H340.624ZM431.891 97.116C404.456 97.116 390.134 85.584 390.134 63.45C390.134 41.316 404.456 29.784 431.891 29.784C459.326 29.784 473.741 41.316 473.741 63.45C473.741 85.584 459.326 97.116 431.891 97.116ZM431.891 81.027C444.818 81.027 450.863 75.54 450.863 63.45C450.863 51.267 444.818 45.78 431.891 45.78C418.964 45.78 412.919 51.267 412.919 63.45C412.919 75.54 418.964 81.027 431.891 81.027ZM522.802 97.116C495.367 97.116 481.045 85.584 481.045 63.45C481.045 41.316 495.367 29.784 522.802 29.784C550.237 29.784 564.652 41.316 564.652 63.45C564.652 85.584 550.237 97.116 522.802 97.116ZM522.802 81.027C535.729 81.027 541.774 75.54 541.774 63.45C541.774 51.267 535.729 45.78 522.802 45.78C509.875 45.78 503.83 51.267 503.83 63.45C503.83 75.54 509.875 81.027 522.802 81.027ZM575.955 96V30.9H598.275V79.725H637.242V96H575.955ZM678.9 97.116C652.302 97.116 641.049 90.234 641.049 74.238V74.145H663.648V74.238C663.648 79.632 667.275 82.515 678.9 82.515C690.897 82.515 693.687 80.283 693.687 76.842C693.687 73.773 691.641 72.378 687.177 72.006L668.205 70.518C648.117 68.937 641.979 62.799 641.979 51.081C641.979 36.945 654.255 29.784 679.272 29.784C704.847 29.784 715.17 36.387 715.17 51.639V51.825H692.943V51.639C692.943 46.245 689.595 44.199 678.9 44.199C667.647 44.199 664.206 46.245 664.206 49.872C664.206 53.034 666.717 54.243 672.576 54.708L691.362 56.103C709.032 57.405 716.286 63.078 716.286 75.261C716.286 89.304 705.777 97.116 678.9 97.116Z" fill="black"/>
<path d="M735.792 28.8933C722.775 47.5257 722.698 76.4071 735.792 95.1065H744.586C731.496 76.4071 731.572 47.5257 744.586 28.8933H735.792Z" fill="black"/>
<path d="M824.128 28.8931H815.333C828.35 47.5255 828.426 76.4069 815.333 95.1064H824.128C837.218 76.4069 837.142 47.5255 824.128 28.8931Z" fill="black"/>
<path d="M847.719 96V30.9H869.76V55.173L895.8 30.9H923.886L903.426 49.407L924.072 96H900.078L886.593 64.752L869.76 80.376V96H847.719ZM932.545 96V30.9H954.865V96H932.545ZM988.02 96V46.896H963.003V30.9H1035.36V46.896H1010.34V96H988.02Z" fill="black"/>
<path d="M782.392 90.5457C781.483 91.7021 779.624 91.059 779.624 89.5897V75.4787C779.624 73.7674 778.238 72.3808 776.527 72.3808H760.946C759.686 72.3808 758.952 70.9558 759.686 69.9321L769.93 55.5908C771.396 53.5404 769.93 50.6904 767.407 50.6904H748.552C747.292 50.6904 746.558 49.2655 747.292 48.2417L760.572 29.6491C760.864 29.2419 761.333 29 761.831 29H801.403C802.663 29 803.398 30.425 802.663 31.4487L792.42 45.79C790.953 47.8404 792.42 50.6904 794.942 50.6904H810.523C811.815 50.6904 812.541 52.1803 811.741 53.1982L782.395 90.5485L782.392 90.5457Z" fill="#6553FF"/>
<mask id="mask1_5_70" style="mask-type:alpha" maskUnits="userSpaceOnUse" x="747" y="29" width="66" height="63">
<path d="M782.392 90.5457C781.483 91.7021 779.624 91.059 779.624 89.5897V75.4785C779.624 73.7674 778.238 72.3808 776.527 72.3808H760.946C759.686 72.3808 758.952 70.9558 759.686 69.9321L769.93 55.5908C771.396 53.5404 769.93 50.6904 767.407 50.6904H748.552C747.292 50.6904 746.558 49.2655 747.292 48.2417L760.572 29.6491C760.864 29.2419 761.333 29 761.831 29H801.403C802.663 29 803.398 30.425 802.663 31.4487L792.42 45.79C790.953 47.8404 792.42 50.6904 794.942 50.6904H810.523C811.815 50.6904 812.541 52.1803 811.741 53.1982L782.395 90.5485L782.392 90.5457Z" fill="#833BFF"/>
</mask>
<g mask="url(#mask1_5_70)">
<g filter="url(#filter10_f_5_70)">
<path d="M781.039 79.5757C781.052 83.7419 772.047 87.1485 760.925 87.1845C749.802 87.2206 740.775 83.8724 740.762 79.7062C740.748 75.54 749.754 72.1334 760.876 72.0974C771.998 72.0613 781.025 75.4095 781.039 79.5757Z" fill="#EEE6FF"/>
</g>
<g filter="url(#filter11_f_5_70)">
<path d="M774.807 53.7733C774.833 61.6393 756.549 68.0753 733.97 68.1485C711.391 68.2217 693.066 61.9044 693.041 54.0383C693.015 46.1723 711.299 39.7363 733.878 39.6631C756.457 39.5899 774.782 45.9073 774.807 53.7733Z" fill="#EEE6FF"/>
</g>
<g filter="url(#filter12_f_5_70)">
<path d="M774.966 51.7777C774.979 55.9439 756.296 59.3819 733.237 59.4566C710.177 59.5314 691.472 56.2146 691.459 52.0484C691.445 47.8822 710.128 44.4443 733.188 44.3695C756.248 44.2948 774.952 47.6115 774.966 51.7777Z" fill="#560CFF"/>
</g>
<g filter="url(#filter13_f_5_70)">
<path d="M781.566 76.4279C781.579 80.5941 762.828 84.0323 739.684 84.1073C716.539 84.1824 697.766 80.8658 697.753 76.6996C697.739 72.5334 716.491 69.0952 739.635 69.0202C762.779 68.9452 781.552 72.2618 781.566 76.4279Z" fill="#560CFF"/>
</g>
<g filter="url(#filter14_f_5_70)">
<path d="M783.665 78.0013C783.678 82.1675 764.927 85.6057 741.782 85.6807C718.638 85.7557 699.865 82.4392 699.851 78.273C699.838 74.1068 718.589 70.6686 741.734 70.5936C764.878 70.5186 783.651 73.8351 783.665 78.0013Z" fill="#560CFF"/>
</g>
<g filter="url(#filter15_f_5_70)">
<path d="M789.437 43.0172C790.059 32.3918 804.079 24.5696 820.75 25.5457C837.421 26.5218 850.431 35.9267 849.809 46.552C849.187 57.1774 835.168 64.9996 818.497 64.0235C801.826 63.0474 788.815 53.6425 789.437 43.0172Z" fill="#EEE6FF"/>
</g>
<g filter="url(#filter16_f_5_70)">
<path d="M791.695 50.0043C791.65 47.3797 804.795 45.0241 821.055 44.7427C837.316 44.4614 850.535 46.361 850.58 48.9855C850.625 51.61 837.48 53.9657 821.22 54.247C804.959 54.5283 791.741 52.6288 791.695 50.0043Z" fill="#560CFF"/>
</g>
<g filter="url(#filter17_f_5_70)">
<path d="M791.695 50.0043C791.65 47.3797 804.795 45.0241 821.055 44.7427C837.316 44.4614 850.535 46.361 850.58 48.9855C850.625 51.61 837.48 53.9657 821.22 54.247C804.959 54.5283 791.741 52.6288 791.695 50.0043Z" fill="#560CFF"/>
</g>
<g filter="url(#filter18_f_5_70)">
<path d="M722.024 72.043C724.596 74.1636 738.036 62.1127 752.043 45.1266C766.05 28.1405 775.321 12.6515 772.749 10.5309C770.178 8.41026 756.738 20.4611 742.731 37.4472C728.723 54.4333 719.453 69.9224 722.024 72.043Z" fill="#560CFF"/>
</g>
<g filter="url(#filter19_f_5_70)">
<path d="M787.459 52.1167C790.09 54.1639 803.184 41.7383 816.706 24.3635C830.229 6.98865 839.058 -8.75598 836.428 -10.8031C833.797 -12.8503 820.703 -0.424743 807.181 16.9501C793.659 34.3249 784.829 50.0696 787.459 52.1167Z" fill="#560CFF"/>
</g>
<g filter="url(#filter20_f_5_70)">
<path d="M792.329 55.9497C797.272 59.7967 805.983 56.8703 811.787 49.4133C817.59 41.9563 818.288 32.7926 813.345 28.9456C808.402 25.0986 799.69 28.025 793.887 35.482C788.083 42.939 787.386 52.1027 792.329 55.9497Z" fill="#00FFD0"/>
</g>
<g filter="url(#filter21_f_5_70)">
<path d="M719.8 112.958C722.43 115.005 735.524 102.579 749.047 85.2046C762.569 67.8298 771.398 52.0851 768.768 50.038C766.138 47.9908 753.043 60.4164 739.521 77.7912C725.999 95.166 717.169 110.911 719.8 112.958Z" fill="#560CFF"/>
</g>
<g filter="url(#filter22_f_5_70)">
<path d="M719.8 112.958C722.43 115.005 735.524 102.579 749.047 85.2046C762.569 67.8298 771.398 52.0851 768.768 50.038C766.138 47.9908 753.043 60.4164 739.521 77.7912C725.999 95.166 717.169 110.911 719.8 112.958Z" fill="#560CFF"/>
</g>
<g filter="url(#filter23_f_5_70)">
<path d="M770.902 101.187C773.697 103.362 786.924 91.0407 800.447 73.6659C813.969 56.2911 822.665 40.4425 819.87 38.2672C817.075 36.0919 803.847 48.4136 790.325 65.7884C776.803 83.1633 768.106 99.0118 770.902 101.187Z" fill="#560CFF"/>
</g>
<g filter="url(#filter24_f_5_70)">
<path d="M783.793 96.9655C788.593 100.701 800.418 93.5363 810.204 80.9617C819.991 68.3871 824.033 55.1648 819.232 51.4288C814.432 47.6929 802.607 54.858 792.821 67.4326C783.034 80.0072 778.992 93.2296 783.793 96.9655Z" fill="#00FFD0"/>
</g>
</g>
</g>
<g clip-path="url(#clip2_5_70)">
<path d="M473.087 317.9L490.292 364.772L507.218 317.9H530.375L504.707 383H474.947L449.279 317.9H473.087ZM538.094 383V317.9H560.414V383H538.094ZM593.569 383V333.896H568.552V317.9H640.906V333.896H615.889V383H593.569ZM649.076 383V317.9H713.339V333.71H671.396V342.452H712.688V357.797H671.396V367.19H714.548V383H649.076Z" fill="black"/>
<path d="M735.792 316.893C722.775 335.526 722.698 364.407 735.792 383.107H744.586C731.496 364.407 731.572 335.526 744.586 316.893H735.792Z" fill="black"/>
<path d="M824.128 316.893H815.333C828.35 335.526 828.426 364.407 815.333 383.106H824.128C837.218 364.407 837.142 335.526 824.128 316.893Z" fill="black"/>
<path d="M847.719 384V318.9H888.639C911.238 318.9 924.165 329.223 924.165 351.45C924.165 373.77 911.145 384 888.546 384H847.719ZM901.287 351.45C901.287 339.267 896.079 334.71 885.477 334.71H870.039V368.19H885.477C896.079 368.19 901.287 363.633 901.287 351.45ZM935.542 384V318.9H999.805V334.71H957.862V343.452H999.154V358.797H957.862V368.19H1001.01V384H935.542ZM1029.2 318.9L1046.4 365.772L1063.33 318.9H1086.49L1060.82 384H1031.06L1005.39 318.9H1029.2ZM1114.62 384V334.896H1089.61V318.9H1161.96V334.896H1136.94V384H1114.62ZM1205.89 385.116C1178.46 385.116 1164.13 373.584 1164.13 351.45C1164.13 329.316 1178.46 317.784 1205.89 317.784C1233.33 317.784 1247.74 329.316 1247.74 351.45C1247.74 373.584 1233.33 385.116 1205.89 385.116ZM1205.89 369.027C1218.82 369.027 1224.86 363.54 1224.86 351.45C1224.86 339.267 1218.82 333.78 1205.89 333.78C1192.96 333.78 1186.92 339.267 1186.92 351.45C1186.92 363.54 1192.96 369.027 1205.89 369.027ZM1296.8 385.116C1269.37 385.116 1255.05 373.584 1255.05 351.45C1255.05 329.316 1269.37 317.784 1296.8 317.784C1324.24 317.784 1338.65 329.316 1338.65 351.45C1338.65 373.584 1324.24 385.116 1296.8 385.116ZM1296.8 369.027C1309.73 369.027 1315.77 363.54 1315.77 351.45C1315.77 339.267 1309.73 333.78 1296.8 333.78C1283.88 333.78 1277.83 339.267 1277.83 351.45C1277.83 363.54 1283.88 369.027 1296.8 369.027ZM1349.96 384V318.9H1372.28V367.725H1411.24V384H1349.96ZM1452.9 385.116C1426.3 385.116 1415.05 378.234 1415.05 362.238V362.145H1437.65V362.238C1437.65 367.632 1441.27 370.515 1452.9 370.515C1464.9 370.515 1467.69 368.283 1467.69 364.842C1467.69 361.773 1465.64 360.378 1461.18 360.006L1442.2 358.518C1422.12 356.937 1415.98 350.799 1415.98 339.081C1415.98 324.945 1428.25 317.784 1453.27 317.784C1478.85 317.784 1489.17 324.387 1489.17 339.639V339.825H1466.94V339.639C1466.94 334.245 1463.59 332.199 1452.9 332.199C1441.65 332.199 1438.21 334.245 1438.21 337.872C1438.21 341.034 1440.72 342.243 1446.58 342.708L1465.36 344.103C1483.03 345.405 1490.29 351.078 1490.29 363.261C1490.29 377.304 1479.78 385.116 1452.9 385.116Z" fill="black"/>
<path d="M782.534 380.546C781.625 381.702 779.767 381.059 779.767 379.59V365.479C779.767 363.768 778.38 362.381 776.669 362.381H761.089C759.829 362.381 759.094 360.956 759.829 359.932L770.072 345.591C771.538 343.541 770.072 340.691 767.55 340.691H748.695C747.435 340.691 746.7 339.266 747.435 338.242L760.714 319.649C761.006 319.242 761.475 319 761.974 319H801.546C802.806 319 803.54 320.425 802.806 321.449L792.562 335.79C791.096 337.841 792.562 340.691 795.085 340.691H810.665C811.957 340.691 812.683 342.181 811.884 343.198L782.537 380.549L782.534 380.546Z" fill="#9135FF"/>
<mask id="mask2_5_70" style="mask-type:alpha" maskUnits="userSpaceOnUse" x="747" y="319" width="66" height="63">
<path d="M782.392 380.546C781.483 381.702 779.624 381.059 779.624 379.59V365.479C779.624 363.767 778.238 362.381 776.527 362.381H760.946C759.686 362.381 758.952 360.956 759.686 359.932L769.93 345.591C771.396 343.54 769.93 340.69 767.407 340.69H748.552C747.292 340.69 746.558 339.265 747.292 338.242L760.572 319.649C760.864 319.242 761.333 319 761.831 319H801.403C802.663 319 803.398 320.425 802.663 321.449L792.42 335.79C790.953 337.84 792.42 340.69 794.942 340.69H810.523C811.815 340.69 812.541 342.18 811.741 343.198L782.395 380.549L782.392 380.546Z" fill="black"/>
</mask>
<g mask="url(#mask2_5_70)">
<g filter="url(#filter25_f_5_70)">
<path d="M781.18 369.576C781.194 373.742 772.189 377.149 761.066 377.185C749.944 377.221 740.917 373.873 740.904 369.706C740.89 365.54 749.895 362.134 761.017 362.098C772.14 362.062 781.167 365.41 781.18 369.576Z" fill="#EEE6FF"/>
</g>
<g filter="url(#filter26_f_5_70)">
<path d="M774.95 343.774C774.976 351.64 756.692 358.076 734.113 358.149C711.534 358.222 693.209 351.905 693.184 344.039C693.158 336.173 711.442 329.737 734.021 329.663C756.6 329.59 774.925 335.908 774.95 343.774Z" fill="#EEE6FF"/>
</g>
<g filter="url(#filter27_f_5_70)">
<path d="M775.109 341.778C775.122 345.944 756.44 349.382 733.38 349.457C710.32 349.532 691.615 346.215 691.602 342.049C691.588 337.883 710.271 334.445 733.331 334.37C756.391 334.295 775.095 337.612 775.109 341.778Z" fill="#8900FF"/>
</g>
<g filter="url(#filter28_f_5_70)">
<path d="M781.708 366.428C781.722 370.594 762.971 374.033 739.826 374.108C716.682 374.183 697.909 370.866 697.895 366.7C697.882 362.534 716.633 359.095 739.777 359.02C762.922 358.945 781.695 362.262 781.708 366.428Z" fill="#8900FF"/>
</g>
<g filter="url(#filter29_f_5_70)">
<path d="M783.807 368.002C783.82 372.168 765.069 375.606 741.925 375.681C718.781 375.756 700.007 372.439 699.994 368.273C699.98 364.107 718.732 360.669 741.876 360.594C765.02 360.519 783.793 363.835 783.807 368.002Z" fill="#8900FF"/>
</g>
<g filter="url(#filter30_f_5_70)">
<path d="M789.58 333.017C790.202 322.392 804.221 314.57 820.892 315.546C837.563 316.522 850.574 325.927 849.952 336.552C849.33 347.177 835.311 355 818.639 354.024C801.968 353.047 788.958 343.643 789.58 333.017Z" fill="#EEE6FF"/>
</g>
<g filter="url(#filter31_f_5_70)">
<path d="M791.839 340.005C791.793 337.38 804.938 335.025 821.199 334.743C837.459 334.462 850.678 336.361 850.723 338.986C850.769 341.61 837.624 343.966 821.363 344.247C805.102 344.529 791.884 342.629 791.839 340.005Z" fill="#8900FF"/>
</g>
<g filter="url(#filter32_f_5_70)">
<path d="M791.839 340.005C791.793 337.38 804.938 335.025 821.199 334.743C837.459 334.462 850.678 336.361 850.723 338.986C850.769 341.61 837.624 343.966 821.363 344.247C805.102 344.529 791.884 342.629 791.839 340.005Z" fill="#8900FF"/>
</g>
<g filter="url(#filter33_f_5_70)">
<path d="M722.167 362.043C724.739 364.164 738.179 352.113 752.186 335.127C766.193 318.141 775.464 302.652 772.892 300.531C770.321 298.41 756.881 310.461 742.874 327.447C728.866 344.434 719.596 359.923 722.167 362.043Z" fill="#8900FF"/>
</g>
<g filter="url(#filter34_f_5_70)">
<path d="M787.601 342.117C790.232 344.164 803.326 331.739 816.848 314.364C830.37 296.989 839.2 281.244 836.569 279.197C833.939 277.15 820.845 289.576 807.323 306.95C793.8 324.325 784.971 340.07 787.601 342.117Z" fill="#8900FF"/>
</g>
<g filter="url(#filter35_f_5_70)">
<path d="M795.587 338.12C799.151 340.895 805.681 338.466 810.171 332.697C814.661 326.928 815.411 320.002 811.846 317.228C808.282 314.454 801.753 316.882 797.262 322.651C792.772 328.421 792.022 335.346 795.587 338.12Z" fill="#00C2FF"/>
</g>
<g filter="url(#filter36_f_5_70)">
<path d="M719.942 402.958C722.573 405.005 735.667 392.58 749.189 375.205C762.711 357.83 771.541 342.086 768.91 340.038C766.28 337.991 753.186 350.417 739.664 367.792C726.141 385.167 717.312 400.911 719.942 402.958Z" fill="#8900FF"/>
</g>
<g filter="url(#filter37_f_5_70)">
<path d="M719.942 402.958C722.573 405.005 735.667 392.58 749.189 375.205C762.711 357.83 771.541 342.086 768.91 340.038C766.28 337.991 753.186 350.417 739.664 367.792C726.141 385.167 717.312 400.911 719.942 402.958Z" fill="#8900FF"/>
</g>
<g filter="url(#filter38_f_5_70)">
<path d="M771.342 391.419C773.973 393.467 787.067 381.041 800.589 363.666C814.111 346.291 822.941 330.547 820.311 328.499C817.68 326.452 804.586 338.878 791.064 356.253C777.542 373.628 768.712 389.372 771.342 391.419Z" fill="#8900FF"/>
</g>
<g filter="url(#filter39_f_5_70)">
<path d="M786.748 379.908C790.313 382.682 798.963 377.528 806.07 368.397C813.176 359.266 816.048 349.614 812.483 346.84C808.919 344.066 800.268 349.22 793.162 358.351C786.055 367.482 783.184 377.134 786.748 379.908Z" fill="#00C2FF"/>
</g>
</g>
</g>
<g clip-path="url(#clip3_5_70)">
<path d="M513.477 192.116C486.042 192.116 471.72 180.584 471.72 158.45C471.72 136.316 486.042 124.784 513.477 124.784C540.912 124.784 555.327 136.316 555.327 158.45C555.327 180.584 540.912 192.116 513.477 192.116ZM513.477 176.027C526.404 176.027 532.449 170.54 532.449 158.45C532.449 146.267 526.404 140.78 513.477 140.78C500.55 140.78 494.505 146.267 494.505 158.45C494.505 170.54 500.55 176.027 513.477 176.027ZM555.194 191L579.374 157.52L555.938 125.9H581.792L596.021 145.709L609.971 125.9H634.523L611.18 157.706L635.36 191H609.785L594.626 169.703L579.746 191H555.194ZM676.391 192.116C649.421 192.116 635.378 180.491 635.378 158.45C635.378 136.409 649.421 124.784 676.391 124.784C700.943 124.784 715.823 134.456 715.823 152.963V153.149H692.201V152.963C692.201 144.965 687.272 140.78 676.391 140.78C664.022 140.78 658.163 146.36 658.163 158.45C658.163 170.447 664.022 176.027 676.391 176.027C687.272 176.027 692.201 171.842 692.201 163.937V163.844H715.823V163.937C715.823 182.258 701.408 192.116 676.391 192.116Z" fill="black"/>
<path d="M735.792 124.893C722.775 143.526 722.698 172.407 735.792 191.107H744.586C731.496 172.407 731.572 143.526 744.586 124.893H735.792Z" fill="black"/>
<path d="M824.128 124.893H815.333C828.35 143.526 828.426 172.407 815.333 191.106H824.128C837.218 172.407 837.142 143.526 824.128 124.893Z" fill="black"/>
<path d="M847.719 192V126.9H888.639C911.238 126.9 924.165 137.223 924.165 159.45C924.165 181.77 911.145 192 888.546 192H847.719ZM901.287 159.45C901.287 147.267 896.079 142.71 885.477 142.71H870.039V176.19H885.477C896.079 176.19 901.287 171.633 901.287 159.45ZM935.542 192V126.9H999.805V142.71H957.862V151.452H999.154V166.797H957.862V176.19H1001.01V192H935.542ZM1029.2 126.9L1046.4 173.772L1063.33 126.9H1086.49L1060.82 192H1031.06L1005.39 126.9H1029.2ZM1114.62 192V142.896H1089.61V126.9H1161.96V142.896H1136.94V192H1114.62ZM1205.89 193.116C1178.46 193.116 1164.13 181.584 1164.13 159.45C1164.13 137.316 1178.46 125.784 1205.89 125.784C1233.33 125.784 1247.74 137.316 1247.74 159.45C1247.74 181.584 1233.33 193.116 1205.89 193.116ZM1205.89 177.027C1218.82 177.027 1224.86 171.54 1224.86 159.45C1224.86 147.267 1218.82 141.78 1205.89 141.78C1192.96 141.78 1186.92 147.267 1186.92 159.45C1186.92 171.54 1192.96 177.027 1205.89 177.027ZM1296.8 193.116C1269.37 193.116 1255.05 181.584 1255.05 159.45C1255.05 137.316 1269.37 125.784 1296.8 125.784C1324.24 125.784 1338.65 137.316 1338.65 159.45C1338.65 181.584 1324.24 193.116 1296.8 193.116ZM1296.8 177.027C1309.73 177.027 1315.77 171.54 1315.77 159.45C1315.77 147.267 1309.73 141.78 1296.8 141.78C1283.88 141.78 1277.83 147.267 1277.83 159.45C1277.83 171.54 1283.88 177.027 1296.8 177.027ZM1349.96 192V126.9H1372.28V175.725H1411.24V192H1349.96ZM1452.9 193.116C1426.3 193.116 1415.05 186.234 1415.05 170.238V170.145H1437.65V170.238C1437.65 175.632 1441.27 178.515 1452.9 178.515C1464.9 178.515 1467.69 176.283 1467.69 172.842C1467.69 169.773 1465.64 168.378 1461.18 168.006L1442.2 166.518C1422.12 164.937 1415.98 158.799 1415.98 147.081C1415.98 132.945 1428.25 125.784 1453.27 125.784C1478.85 125.784 1489.17 132.387 1489.17 147.639V147.825H1466.94V147.639C1466.94 142.245 1463.59 140.199 1452.9 140.199C1441.65 140.199 1438.21 142.245 1438.21 145.872C1438.21 149.034 1440.72 150.243 1446.58 150.708L1465.36 152.103C1483.03 153.405 1490.29 159.078 1490.29 171.261C1490.29 185.304 1479.78 193.116 1452.9 193.116Z" fill="black"/>
<path d="M789.52 136.298C789.52 138.009 790.907 139.395 792.618 139.395H804.372C805.753 139.395 806.443 141.065 805.467 142.039L790.426 157.079C789.845 157.66 789.517 158.448 789.517 159.271V164.414C789.517 166.553 791.639 168.037 793.515 167.016C795.427 165.977 797.206 164.72 798.814 163.281C799.451 162.711 800.43 162.705 801.035 163.313L811.99 174.268C812.594 174.872 812.597 175.855 811.972 176.439C803.664 184.213 792.497 188.975 780.221 188.975C767.945 188.975 756.778 184.213 748.47 176.439C747.845 175.855 747.848 174.872 748.453 174.268L759.407 163.313C760.012 162.708 760.991 162.711 761.628 163.281C763.236 164.72 765.015 165.977 766.927 167.016C768.806 168.037 770.925 166.553 770.925 164.414V159.271C770.925 158.448 770.597 157.66 770.016 157.079L754.976 142.039C753.999 141.062 754.689 139.395 756.07 139.395H767.824C769.535 139.395 770.922 138.009 770.922 136.298V128.55C770.922 127.695 771.615 127.001 772.471 127.001H787.963C788.818 127.001 789.512 127.695 789.512 128.55V136.298H789.52Z" fill="#00F7F1"/>
<mask id="mask3_5_70" style="mask-type:alpha" maskUnits="userSpaceOnUse" x="748" y="127" width="65" height="62">
<path d="M789.52 136.296C789.52 138.007 790.907 139.394 792.618 139.394H804.372C805.753 139.394 806.443 141.064 805.467 142.038L790.426 157.078C789.845 157.659 789.517 158.447 789.517 159.27V164.412C789.517 166.551 791.639 168.035 793.515 167.015C795.427 165.976 797.206 164.719 798.814 163.28C799.451 162.71 800.43 162.704 801.035 163.312L811.99 174.266C812.594 174.871 812.597 175.854 811.972 176.438C803.664 184.212 792.497 188.973 780.221 188.973C767.945 188.973 756.778 184.212 748.47 176.438C747.845 175.854 747.848 174.871 748.453 174.266L759.407 163.312C760.012 162.707 760.991 162.71 761.628 163.28C763.236 164.719 765.015 165.976 766.927 167.015C768.806 168.035 770.925 166.551 770.925 164.412V159.27C770.925 158.447 770.597 157.659 770.016 157.078L754.976 142.038C753.999 141.061 754.689 139.394 756.07 139.394H767.824C769.535 139.394 770.922 138.007 770.922 136.296V128.549C770.922 127.693 771.615 127 772.471 127H787.963C788.818 127 789.512 127.693 789.512 128.549V136.296H789.52Z" fill="#D9D9D9"/>
</mask>
<g mask="url(#mask3_5_70)">
<g filter="url(#filter40_f_5_70)">
<path d="M750.598 189.967C750.598 186.474 763.782 183.643 780.045 183.643C796.308 183.643 809.491 186.474 809.491 189.967C809.491 193.46 796.308 196.291 780.045 196.291C763.782 196.291 750.598 193.46 750.598 189.967Z" fill="#93FFFC"/>
</g>
<g filter="url(#filter41_f_5_70)">
<path d="M777.583 198.145C776.294 194.899 787.502 187.401 802.616 181.399C817.731 175.396 831.029 173.162 832.318 176.408C833.607 179.654 822.4 187.152 807.285 193.154C792.17 199.157 778.872 201.392 777.583 198.145Z" fill="#00FF79"/>
</g>
<g filter="url(#filter42_f_5_70)">
<path d="M782.491 198.145C783.78 194.899 772.572 187.402 757.458 181.399C742.343 175.396 729.045 173.162 727.756 176.408C726.467 179.654 737.674 187.152 752.789 193.155C767.904 199.157 781.202 201.392 782.491 198.145Z" fill="#0060FF"/>
</g>
<g filter="url(#filter43_f_5_70)">
<path d="M797.776 160.478C795.782 158.498 791.458 159.62 788.117 162.984C784.776 166.348 783.684 170.68 785.677 172.661C787.671 174.641 791.996 173.519 795.337 170.155C798.678 166.791 799.77 162.459 797.776 160.478Z" fill="#93FFFC"/>
</g>
<g filter="url(#filter44_f_5_70)">
<path d="M800.399 155.758C798.405 153.778 794.08 154.9 790.739 158.264C787.398 161.628 786.306 165.96 788.3 167.94C790.294 169.921 794.619 168.799 797.96 165.435C801.301 162.071 802.393 157.738 800.399 155.758Z" fill="#0060FF"/>
</g>
<g filter="url(#filter45_f_5_70)">
<path d="M799.874 129.533C797.88 127.553 793.555 128.675 790.214 132.039C786.873 135.403 785.781 139.735 787.775 141.715C789.769 143.696 794.094 142.574 797.435 139.21C800.776 135.846 801.868 131.513 799.874 129.533Z" fill="#93FFFC"/>
</g>
<g filter="url(#filter46_f_5_70)">
<path d="M801.448 127.436C799.454 125.455 795.129 126.577 791.788 129.941C788.447 133.305 787.355 137.638 789.349 139.618C791.343 141.598 795.667 140.476 799.008 137.112C802.349 133.748 803.441 129.416 801.448 127.436Z" fill="#0060FF"/>
</g>
<g filter="url(#filter47_f_5_70)">
<path d="M763.124 161.527C765.118 159.547 769.443 160.669 772.784 164.033C776.125 167.397 777.217 171.729 775.223 173.71C773.229 175.69 768.905 174.568 765.564 171.204C762.223 167.84 761.13 163.507 763.124 161.527Z" fill="#93FFFC"/>
</g>
<g filter="url(#filter48_f_5_70)">
<path d="M759.452 156.807C761.446 154.827 765.771 155.949 769.112 159.313C772.453 162.677 773.545 167.009 771.551 168.989C769.557 170.97 765.233 169.848 761.892 166.484C758.551 163.12 757.459 158.787 759.452 156.807Z" fill="#0060FF"/>
</g>
<g filter="url(#filter49_f_5_70)">
<path d="M759.452 129.533C761.446 127.553 765.771 128.675 769.112 132.039C772.453 135.403 773.545 139.735 771.551 141.715C769.557 143.696 765.233 142.574 761.892 139.21C758.551 135.846 757.459 131.513 759.452 129.533Z" fill="#93FFFC"/>
</g>
<g filter="url(#filter50_f_5_70)">
<path d="M758.929 126.386C760.923 124.406 765.247 125.528 768.588 128.892C771.929 132.256 773.021 136.588 771.027 138.569C769.034 140.549 764.709 139.427 761.368 136.063C758.027 132.699 756.935 128.367 758.929 126.386Z" fill="#0060FF"/>
</g>
<g filter="url(#filter51_f_5_70)">
<path d="M749.012 139.472C751.006 137.492 757.786 141.085 764.154 147.498C770.523 153.911 774.07 160.715 772.076 162.695C770.082 164.675 763.303 161.082 756.934 154.669C750.565 148.256 747.018 141.453 749.012 139.472Z" fill="#0060FF"/>
</g>
<g filter="url(#filter52_f_5_70)">
<path d="M812.938 135.276C810.944 133.296 804.164 136.889 797.795 143.302C791.427 149.715 787.88 156.519 789.874 158.499C791.868 160.479 798.647 156.886 805.016 150.473C811.385 144.06 814.931 137.256 812.938 135.276Z" fill="#00FF79"/>
</g>
<g filter="url(#filter53_f_5_70)">
<path d="M750.598 192.589C750.598 189.097 763.782 186.265 780.045 186.265C796.308 186.265 809.491 189.097 809.491 192.589C809.491 196.082 796.308 198.914 780.045 198.914C763.782 198.914 750.598 196.082 750.598 192.589Z" fill="#0060FF"/>
</g>
</g>
</g>
<g clip-path="url(#clip4_5_70)">
<path d="M319.087 413.9L336.292 460.772L353.218 413.9H376.375L350.707 479H320.947L295.279 413.9H319.087ZM384.094 479V413.9H406.414V479H384.094ZM439.569 479V429.896H414.552V413.9H486.906V429.896H461.889V479H439.569ZM495.076 479V413.9H559.339V429.71H517.396V438.452H558.688V453.797H517.396V463.19H560.548V479H495.076ZM604.923 480.116C578.325 480.116 567.072 473.234 567.072 457.238V457.145H589.671V457.238C589.671 462.632 593.298 465.515 604.923 465.515C616.92 465.515 619.71 463.283 619.71 459.842C619.71 456.773 617.664 455.378 613.2 455.006L594.228 453.518C574.14 451.937 568.002 445.799 568.002 434.081C568.002 419.945 580.278 412.784 605.295 412.784C630.87 412.784 641.193 419.387 641.193 434.639V434.825H618.966V434.639C618.966 429.245 615.618 427.199 604.923 427.199C593.67 427.199 590.229 429.245 590.229 432.872C590.229 436.034 592.74 437.243 598.599 437.708L617.385 439.103C635.055 440.405 642.309 446.078 642.309 458.261C642.309 472.304 631.8 480.116 604.923 480.116ZM670.889 479V429.896H645.872V413.9H718.226V429.896H693.209V479H670.889Z" fill="black"/>
<path d="M735.792 412.893C722.775 431.526 722.698 460.407 735.792 479.107H744.586C731.496 460.407 731.572 431.526 744.586 412.893H735.792Z" fill="black"/>
<path d="M824.128 412.893H815.333C828.35 431.526 828.426 460.407 815.333 479.106H824.128C837.218 460.407 837.142 431.526 824.128 412.893Z" fill="black"/>
<path d="M882.873 481.116C858.6 481.116 846.138 472.374 846.138 453.867V414.9H868.458V454.239C868.458 461.307 873.48 464.934 882.873 464.934C892.266 464.934 897.288 461.307 897.288 454.239V414.9H919.608V453.867C919.608 472.374 907.146 481.116 882.873 481.116ZM933.363 480V414.9H955.683V480H933.363Z" fill="black"/>
<path d="M780.157 477.838C779.671 478.702 778.541 478.949 777.736 478.365L749.682 457.96C749.252 457.648 749 457.149 749 456.619V432.027C749 430.673 750.537 429.89 751.632 430.685L768.792 443.165C770.395 444.332 772.658 443.837 773.63 442.11L787.842 416.846C788.136 416.325 788.688 416 789.288 416H812.106C813.375 416 814.174 417.367 813.552 418.471L780.157 477.834V477.838Z" fill="#00FF74"/>
<mask id="mask4_5_70" style="mask-type:alpha" maskUnits="userSpaceOnUse" x="749" y="416" width="65" height="63">
<path d="M780.157 477.838C779.671 478.702 778.541 478.949 777.736 478.365L749.682 457.96C749.252 457.648 749 457.149 749 456.619V432.027C749 430.673 750.537 429.89 751.632 430.685L768.792 443.165C770.395 444.332 772.658 443.837 773.63 442.11L787.842 416.846C788.136 416.325 788.688 416 789.288 416H812.106C813.375 416 814.174 417.367 813.552 418.471L780.157 477.834V477.838Z" fill="black"/>
</mask>
<g mask="url(#mask4_5_70)">
<g filter="url(#filter54_f_5_70)">
<path d="M790.816 432.778C783.435 441.405 775.762 446.953 773.677 445.17C771.593 443.386 775.886 434.947 783.266 426.319C790.647 417.692 798.32 412.144 800.405 413.927C802.489 415.711 798.196 424.151 790.816 432.778Z" fill="#00D0C7"/>
</g>
<g filter="url(#filter55_f_5_70)">
<path d="M746.086 464.819C739.407 455.638 737.222 445.846 741.205 442.949C745.188 440.052 753.831 445.146 760.509 454.327C767.188 463.509 769.373 473.3 765.39 476.198C761.407 479.095 752.765 474.001 746.086 464.819Z" fill="#00D0C7"/>
</g>
<g filter="url(#filter56_f_5_70)">
<path d="M755.245 441.346C759.989 443.372 765.264 441.666 767.028 437.536C768.792 433.405 766.378 428.415 761.634 426.389C756.891 424.363 751.616 426.069 749.852 430.199C748.087 434.33 750.502 439.32 755.245 441.346Z" fill="#03FF00"/>
</g>
<g filter="url(#filter57_f_5_70)">
<path d="M794.62 472.426C798.798 474.211 808.506 460.858 816.304 442.601C824.102 424.345 827.037 408.098 822.859 406.314C818.681 404.529 808.973 417.882 801.175 436.139C793.377 454.395 790.442 470.642 794.62 472.426Z" fill="#03FF00"/>
</g>
<g filter="url(#filter58_f_5_70)">
<path d="M791.098 406.003C793.95 403.15 800.933 405.508 806.694 411.269C812.455 417.031 814.813 424.013 811.961 426.866C809.109 429.718 802.126 427.36 796.365 421.599C790.604 415.838 788.246 408.855 791.098 406.003Z" fill="#6EFFE1"/>
</g>
</g>
</g>
<defs>
<filter id="filter0_f_5_70" x="782.803" y="183.794" width="55.0477" height="76.8514" filterUnits="userSpaceOnUse" color-interpolation-filters="sRGB">
<feFlood flood-opacity="0" result="BackgroundImageFix"/>
<feBlend mode="normal" in="SourceGraphic" in2="BackgroundImageFix" result="shape"/>
<feGaussianBlur stdDeviation="4.82534" result="effect1_foregroundBlur_5_70"/>
</filter>
<filter id="filter1_f_5_70" x="781.195" y="215.962" width="55.0477" height="76.8514" filterUnits="userSpaceOnUse" color-interpolation-filters="sRGB">
<feFlood flood-opacity="0" result="BackgroundImageFix"/>
<feBlend mode="normal" in="SourceGraphic" in2="BackgroundImageFix" result="shape"/>
<feGaussianBlur stdDeviation="4.82534" result="effect1_foregroundBlur_5_70"/>
</filter>
<filter id="filter2_f_5_70" x="722.797" y="188.403" width="56.289" height="69.0797" filterUnits="userSpaceOnUse" color-interpolation-filters="sRGB">
<feFlood flood-opacity="0" result="BackgroundImageFix"/>
<feBlend mode="normal" in="SourceGraphic" in2="BackgroundImageFix" result="shape"/>
<feGaussianBlur stdDeviation="4.82534" result="effect1_foregroundBlur_5_70"/>
</filter>
<filter id="filter3_f_5_70" x="730.839" y="234.124" width="56.289" height="69.0797" filterUnits="userSpaceOnUse" color-interpolation-filters="sRGB">
<feFlood flood-opacity="0" result="BackgroundImageFix"/>
<feBlend mode="normal" in="SourceGraphic" in2="BackgroundImageFix" result="shape"/>
<feGaussianBlur stdDeviation="4.82534" result="effect1_foregroundBlur_5_70"/>
</filter>
<filter id="filter4_f_5_70" x="780.702" y="188.403" width="56.289" height="69.0797" filterUnits="userSpaceOnUse" color-interpolation-filters="sRGB">
<feFlood flood-opacity="0" result="BackgroundImageFix"/>
<feBlend mode="normal" in="SourceGraphic" in2="BackgroundImageFix" result="shape"/>
<feGaussianBlur stdDeviation="4.82534" result="effect1_foregroundBlur_5_70"/>
</filter>
<filter id="filter5_f_5_70" x="771.051" y="234.124" width="56.289" height="69.0797" filterUnits="userSpaceOnUse" color-interpolation-filters="sRGB">
<feFlood flood-opacity="0" result="BackgroundImageFix"/>
<feBlend mode="normal" in="SourceGraphic" in2="BackgroundImageFix" result="shape"/>
<feGaussianBlur stdDeviation="4.82534" result="effect1_foregroundBlur_5_70"/>
</filter>
<filter id="filter6_f_5_70" x="775.877" y="188.403" width="56.289" height="69.0797" filterUnits="userSpaceOnUse" color-interpolation-filters="sRGB">
<feFlood flood-opacity="0" result="BackgroundImageFix"/>
<feBlend mode="normal" in="SourceGraphic" in2="BackgroundImageFix" result="shape"/>
<feGaussianBlur stdDeviation="4.82534" result="effect1_foregroundBlur_5_70"/>
</filter>
<filter id="filter7_f_5_70" x="767.834" y="234.124" width="56.289" height="69.0797" filterUnits="userSpaceOnUse" color-interpolation-filters="sRGB">
<feFlood flood-opacity="0" result="BackgroundImageFix"/>
<feBlend mode="normal" in="SourceGraphic" in2="BackgroundImageFix" result="shape"/>
<feGaussianBlur stdDeviation="4.82534" result="effect1_foregroundBlur_5_70"/>
</filter>
<filter id="filter8_f_5_70" x="721.897" y="190.062" width="64.0367" height="70.1844" filterUnits="userSpaceOnUse" color-interpolation-filters="sRGB">
<feFlood flood-opacity="0" result="BackgroundImageFix"/>
<feBlend mode="normal" in="SourceGraphic" in2="BackgroundImageFix" result="shape"/>
<feGaussianBlur stdDeviation="4.82534" result="effect1_foregroundBlur_5_70"/>
</filter>
<filter id="filter9_f_5_70" x="729.1" y="224.055" width="59.9095" height="73.5335" filterUnits="userSpaceOnUse" color-interpolation-filters="sRGB">
<feFlood flood-opacity="0" result="BackgroundImageFix"/>
<feBlend mode="normal" in="SourceGraphic" in2="BackgroundImageFix" result="shape"/>
<feGaussianBlur stdDeviation="4.82534" result="effect1_foregroundBlur_5_70"/>
</filter>
<filter id="filter10_f_5_70" x="719.782" y="51.1174" width="82.2362" height="57.0471" filterUnits="userSpaceOnUse" color-interpolation-filters="sRGB">
<feFlood flood-opacity="0" result="BackgroundImageFix"/>
<feBlend mode="normal" in="SourceGraphic" in2="BackgroundImageFix" result="shape"/>
<feGaussianBlur stdDeviation="10.4899" result="effect1_foregroundBlur_5_70"/>
</filter>
<filter id="filter11_f_5_70" x="672.061" y="18.6827" width="123.726" height="70.4461" filterUnits="userSpaceOnUse" color-interpolation-filters="sRGB">
<feFlood flood-opacity="0" result="BackgroundImageFix"/>
<feBlend mode="normal" in="SourceGraphic" in2="BackgroundImageFix" result="shape"/>
<feGaussianBlur stdDeviation="10.4899" result="effect1_foregroundBlur_5_70"/>
</filter>
<filter id="filter12_f_5_70" x="678.871" y="31.7804" width="108.683" height="40.2653" filterUnits="userSpaceOnUse" color-interpolation-filters="sRGB">
<feFlood flood-opacity="0" result="BackgroundImageFix"/>
<feBlend mode="normal" in="SourceGraphic" in2="BackgroundImageFix" result="shape"/>
<feGaussianBlur stdDeviation="6.29392" result="effect1_foregroundBlur_5_70"/>
</filter>
<filter id="filter13_f_5_70" x="685.165" y="56.4311" width="108.989" height="40.2653" filterUnits="userSpaceOnUse" color-interpolation-filters="sRGB">
<feFlood flood-opacity="0" result="BackgroundImageFix"/>
<feBlend mode="normal" in="SourceGraphic" in2="BackgroundImageFix" result="shape"/>
<feGaussianBlur stdDeviation="6.29392" result="effect1_foregroundBlur_5_70"/>
</filter>
<filter id="filter14_f_5_70" x="687.264" y="58.0045" width="108.989" height="40.2653" filterUnits="userSpaceOnUse" color-interpolation-filters="sRGB">
<feFlood flood-opacity="0" result="BackgroundImageFix"/>
<feBlend mode="normal" in="SourceGraphic" in2="BackgroundImageFix" result="shape"/>
<feGaussianBlur stdDeviation="6.29392" result="effect1_foregroundBlur_5_70"/>
</filter>
<filter id="filter15_f_5_70" x="768.436" y="4.48374" width="102.374" height="80.6017" filterUnits="userSpaceOnUse" color-interpolation-filters="sRGB">
<feFlood flood-opacity="0" result="BackgroundImageFix"/>
<feBlend mode="normal" in="SourceGraphic" in2="BackgroundImageFix" result="shape"/>
<feGaussianBlur stdDeviation="10.4899" result="effect1_foregroundBlur_5_70"/>
</filter>
<filter id="filter16_f_5_70" x="779.107" y="32.1273" width="84.0606" height="34.7352" filterUnits="userSpaceOnUse" color-interpolation-filters="sRGB">
<feFlood flood-opacity="0" result="BackgroundImageFix"/>
<feBlend mode="normal" in="SourceGraphic" in2="BackgroundImageFix" result="shape"/>
<feGaussianBlur stdDeviation="6.29392" result="effect1_foregroundBlur_5_70"/>
</filter>
<filter id="filter17_f_5_70" x="779.107" y="32.1273" width="84.0606" height="34.7352" filterUnits="userSpaceOnUse" color-interpolation-filters="sRGB">
<feFlood flood-opacity="0" result="BackgroundImageFix"/>
<feBlend mode="normal" in="SourceGraphic" in2="BackgroundImageFix" result="shape"/>
<feGaussianBlur stdDeviation="6.29392" result="effect1_foregroundBlur_5_70"/>
</filter>
<filter id="filter18_f_5_70" x="709.008" y="-2.29899" width="76.7577" height="87.1718" filterUnits="userSpaceOnUse" color-interpolation-filters="sRGB">
<feFlood flood-opacity="0" result="BackgroundImageFix"/>
<feBlend mode="normal" in="SourceGraphic" in2="BackgroundImageFix" result="shape"/>
<feGaussianBlur stdDeviation="6.29392" result="effect1_foregroundBlur_5_70"/>
</filter>
<filter id="filter19_f_5_70" x="774.408" y="-23.6116" width="75.0711" height="88.5369" filterUnits="userSpaceOnUse" color-interpolation-filters="sRGB">
<feFlood flood-opacity="0" result="BackgroundImageFix"/>
<feBlend mode="normal" in="SourceGraphic" in2="BackgroundImageFix" result="shape"/>
<feGaussianBlur stdDeviation="6.29392" result="effect1_foregroundBlur_5_70"/>
</filter>
<filter id="filter20_f_5_70" x="776.445" y="14.6637" width="52.7826" height="55.5679" filterUnits="userSpaceOnUse" color-interpolation-filters="sRGB">
<feFlood flood-opacity="0" result="BackgroundImageFix"/>
<feBlend mode="normal" in="SourceGraphic" in2="BackgroundImageFix" result="shape"/>
<feGaussianBlur stdDeviation="6.29392" result="effect1_foregroundBlur_5_70"/>
</filter>
<filter id="filter21_f_5_70" x="706.748" y="37.2295" width="75.0711" height="88.5369" filterUnits="userSpaceOnUse" color-interpolation-filters="sRGB">
<feFlood flood-opacity="0" result="BackgroundImageFix"/>
<feBlend mode="normal" in="SourceGraphic" in2="BackgroundImageFix" result="shape"/>
<feGaussianBlur stdDeviation="6.29392" result="effect1_foregroundBlur_5_70"/>
</filter>
<filter id="filter22_f_5_70" x="706.748" y="37.2295" width="75.0711" height="88.5369" filterUnits="userSpaceOnUse" color-interpolation-filters="sRGB">
<feFlood flood-opacity="0" result="BackgroundImageFix"/>
<feBlend mode="normal" in="SourceGraphic" in2="BackgroundImageFix" result="shape"/>
<feGaussianBlur stdDeviation="6.29392" result="effect1_foregroundBlur_5_70"/>
</filter>
<filter id="filter23_f_5_70" x="757.791" y="25.4304" width="75.189" height="88.5934" filterUnits="userSpaceOnUse" color-interpolation-filters="sRGB">
<feFlood flood-opacity="0" result="BackgroundImageFix"/>
<feBlend mode="normal" in="SourceGraphic" in2="BackgroundImageFix" result="shape"/>
<feGaussianBlur stdDeviation="6.29392" result="effect1_foregroundBlur_5_70"/>
</filter>
<filter id="filter24_f_5_70" x="769.183" y="37.8511" width="64.658" height="72.6921" filterUnits="userSpaceOnUse" color-interpolation-filters="sRGB">
<feFlood flood-opacity="0" result="BackgroundImageFix"/>
<feBlend mode="normal" in="SourceGraphic" in2="BackgroundImageFix" result="shape"/>
<feGaussianBlur stdDeviation="6.29392" result="effect1_foregroundBlur_5_70"/>
</filter>
<filter id="filter25_f_5_70" x="719.924" y="341.118" width="82.2362" height="57.0471" filterUnits="userSpaceOnUse" color-interpolation-filters="sRGB">
<feFlood flood-opacity="0" result="BackgroundImageFix"/>
<feBlend mode="normal" in="SourceGraphic" in2="BackgroundImageFix" result="shape"/>
<feGaussianBlur stdDeviation="10.4899" result="effect1_foregroundBlur_5_70"/>
</filter>
<filter id="filter26_f_5_70" x="672.204" y="308.683" width="123.726" height="70.4461" filterUnits="userSpaceOnUse" color-interpolation-filters="sRGB">
<feFlood flood-opacity="0" result="BackgroundImageFix"/>
<feBlend mode="normal" in="SourceGraphic" in2="BackgroundImageFix" result="shape"/>
<feGaussianBlur stdDeviation="10.4899" result="effect1_foregroundBlur_5_70"/>
</filter>
<filter id="filter27_f_5_70" x="679.014" y="321.781" width="108.683" height="40.2653" filterUnits="userSpaceOnUse" color-interpolation-filters="sRGB">
<feFlood flood-opacity="0" result="BackgroundImageFix"/>
<feBlend mode="normal" in="SourceGraphic" in2="BackgroundImageFix" result="shape"/>
<feGaussianBlur stdDeviation="6.29392" result="effect1_foregroundBlur_5_70"/>
</filter>
<filter id="filter28_f_5_70" x="685.307" y="346.431" width="108.989" height="40.2653" filterUnits="userSpaceOnUse" color-interpolation-filters="sRGB">
<feFlood flood-opacity="0" result="BackgroundImageFix"/>
<feBlend mode="normal" in="SourceGraphic" in2="BackgroundImageFix" result="shape"/>
<feGaussianBlur stdDeviation="6.29392" result="effect1_foregroundBlur_5_70"/>
</filter>
<filter id="filter29_f_5_70" x="687.406" y="348.005" width="108.989" height="40.2653" filterUnits="userSpaceOnUse" color-interpolation-filters="sRGB">
<feFlood flood-opacity="0" result="BackgroundImageFix"/>
<feBlend mode="normal" in="SourceGraphic" in2="BackgroundImageFix" result="shape"/>
<feGaussianBlur stdDeviation="6.29392" result="effect1_foregroundBlur_5_70"/>
</filter>
<filter id="filter30_f_5_70" x="768.579" y="294.484" width="102.374" height="80.6017" filterUnits="userSpaceOnUse" color-interpolation-filters="sRGB">
<feFlood flood-opacity="0" result="BackgroundImageFix"/>
<feBlend mode="normal" in="SourceGraphic" in2="BackgroundImageFix" result="shape"/>
<feGaussianBlur stdDeviation="10.4899" result="effect1_foregroundBlur_5_70"/>
</filter>
<filter id="filter31_f_5_70" x="779.251" y="322.128" width="84.0606" height="34.7352" filterUnits="userSpaceOnUse" color-interpolation-filters="sRGB">
<feFlood flood-opacity="0" result="BackgroundImageFix"/>
<feBlend mode="normal" in="SourceGraphic" in2="BackgroundImageFix" result="shape"/>
<feGaussianBlur stdDeviation="6.29392" result="effect1_foregroundBlur_5_70"/>
</filter>
<filter id="filter32_f_5_70" x="779.251" y="322.128" width="84.0606" height="34.7352" filterUnits="userSpaceOnUse" color-interpolation-filters="sRGB">
<feFlood flood-opacity="0" result="BackgroundImageFix"/>
<feBlend mode="normal" in="SourceGraphic" in2="BackgroundImageFix" result="shape"/>
<feGaussianBlur stdDeviation="6.29392" result="effect1_foregroundBlur_5_70"/>
</filter>
<filter id="filter33_f_5_70" x="709.151" y="287.701" width="76.7577" height="87.1718" filterUnits="userSpaceOnUse" color-interpolation-filters="sRGB">
<feFlood flood-opacity="0" result="BackgroundImageFix"/>
<feBlend mode="normal" in="SourceGraphic" in2="BackgroundImageFix" result="shape"/>
<feGaussianBlur stdDeviation="6.29392" result="effect1_foregroundBlur_5_70"/>
</filter>
<filter id="filter34_f_5_70" x="774.55" y="266.389" width="75.0711" height="88.5369" filterUnits="userSpaceOnUse" color-interpolation-filters="sRGB">
<feFlood flood-opacity="0" result="BackgroundImageFix"/>
<feBlend mode="normal" in="SourceGraphic" in2="BackgroundImageFix" result="shape"/>
<feGaussianBlur stdDeviation="6.29392" result="effect1_foregroundBlur_5_70"/>
</filter>
<filter id="filter35_f_5_70" x="780.748" y="303.493" width="45.9371" height="48.3633" filterUnits="userSpaceOnUse" color-interpolation-filters="sRGB">
<feFlood flood-opacity="0" result="BackgroundImageFix"/>
<feBlend mode="normal" in="SourceGraphic" in2="BackgroundImageFix" result="shape"/>
<feGaussianBlur stdDeviation="6.29392" result="effect1_foregroundBlur_5_70"/>
</filter>
<filter id="filter36_f_5_70" x="706.891" y="327.23" width="75.0711" height="88.5369" filterUnits="userSpaceOnUse" color-interpolation-filters="sRGB">
<feFlood flood-opacity="0" result="BackgroundImageFix"/>
<feBlend mode="normal" in="SourceGraphic" in2="BackgroundImageFix" result="shape"/>
<feGaussianBlur stdDeviation="6.29392" result="effect1_foregroundBlur_5_70"/>
</filter>
<filter id="filter37_f_5_70" x="706.891" y="327.23" width="75.0711" height="88.5369" filterUnits="userSpaceOnUse" color-interpolation-filters="sRGB">
<feFlood flood-opacity="0" result="BackgroundImageFix"/>
<feBlend mode="normal" in="SourceGraphic" in2="BackgroundImageFix" result="shape"/>
<feGaussianBlur stdDeviation="6.29392" result="effect1_foregroundBlur_5_70"/>
</filter>
<filter id="filter38_f_5_70" x="758.291" y="315.691" width="75.0711" height="88.5369" filterUnits="userSpaceOnUse" color-interpolation-filters="sRGB">
<feFlood flood-opacity="0" result="BackgroundImageFix"/>
<feBlend mode="normal" in="SourceGraphic" in2="BackgroundImageFix" result="shape"/>
<feGaussianBlur stdDeviation="6.29392" result="effect1_foregroundBlur_5_70"/>
</filter>
<filter id="filter39_f_5_70" x="772.629" y="333.502" width="53.9728" height="59.7445" filterUnits="userSpaceOnUse" color-interpolation-filters="sRGB">
<feFlood flood-opacity="0" result="BackgroundImageFix"/>
<feBlend mode="normal" in="SourceGraphic" in2="BackgroundImageFix" result="shape"/>
<feGaussianBlur stdDeviation="6.29392" result="effect1_foregroundBlur_5_70"/>
</filter>
<filter id="filter40_f_5_70" x="738.01" y="171.055" width="84.0692" height="37.8245" filterUnits="userSpaceOnUse" color-interpolation-filters="sRGB">
<feFlood flood-opacity="0" result="BackgroundImageFix"/>
<feBlend mode="normal" in="SourceGraphic" in2="BackgroundImageFix" result="shape"/>
<feGaussianBlur stdDeviation="6.29392" result="effect1_foregroundBlur_5_70"/>
</filter>
<filter id="filter41_f_5_70" x="764.894" y="162.33" width="80.1127" height="49.893" filterUnits="userSpaceOnUse" color-interpolation-filters="sRGB">
<feFlood flood-opacity="0" result="BackgroundImageFix"/>
<feBlend mode="normal" in="SourceGraphic" in2="BackgroundImageFix" result="shape"/>
<feGaussianBlur stdDeviation="6.29392" result="effect1_foregroundBlur_5_70"/>
</filter>
<filter id="filter42_f_5_70" x="715.067" y="162.33" width="80.1127" height="49.893" filterUnits="userSpaceOnUse" color-interpolation-filters="sRGB">
<feFlood flood-opacity="0" result="BackgroundImageFix"/>
<feBlend mode="normal" in="SourceGraphic" in2="BackgroundImageFix" result="shape"/>
<feGaussianBlur stdDeviation="6.29392" result="effect1_foregroundBlur_5_70"/>
</filter>
<filter id="filter43_f_5_70" x="772.093" y="146.912" width="39.2674" height="39.3141" filterUnits="userSpaceOnUse" color-interpolation-filters="sRGB">
<feFlood flood-opacity="0" result="BackgroundImageFix"/>
<feBlend mode="normal" in="SourceGraphic" in2="BackgroundImageFix" result="shape"/>
<feGaussianBlur stdDeviation="6.29392" result="effect1_foregroundBlur_5_70"/>
</filter>
<filter id="filter44_f_5_70" x="774.716" y="142.192" width="39.2674" height="39.3141" filterUnits="userSpaceOnUse" color-interpolation-filters="sRGB">
<feFlood flood-opacity="0" result="BackgroundImageFix"/>
<feBlend mode="normal" in="SourceGraphic" in2="BackgroundImageFix" result="shape"/>
<feGaussianBlur stdDeviation="6.29392" result="effect1_foregroundBlur_5_70"/>
</filter>
<filter id="filter45_f_5_70" x="774.191" y="115.967" width="39.2674" height="39.3141" filterUnits="userSpaceOnUse" color-interpolation-filters="sRGB">
<feFlood flood-opacity="0" result="BackgroundImageFix"/>
<feBlend mode="normal" in="SourceGraphic" in2="BackgroundImageFix" result="shape"/>
<feGaussianBlur stdDeviation="6.29392" result="effect1_foregroundBlur_5_70"/>
</filter>
<filter id="filter46_f_5_70" x="775.764" y="113.87" width="39.2674" height="39.3141" filterUnits="userSpaceOnUse" color-interpolation-filters="sRGB">
<feFlood flood-opacity="0" result="BackgroundImageFix"/>
<feBlend mode="normal" in="SourceGraphic" in2="BackgroundImageFix" result="shape"/>
<feGaussianBlur stdDeviation="6.29392" result="effect1_foregroundBlur_5_70"/>
</filter>
<filter id="filter47_f_5_70" x="749.54" y="147.961" width="39.2674" height="39.3141" filterUnits="userSpaceOnUse" color-interpolation-filters="sRGB">
<feFlood flood-opacity="0" result="BackgroundImageFix"/>
<feBlend mode="normal" in="SourceGraphic" in2="BackgroundImageFix" result="shape"/>
<feGaussianBlur stdDeviation="6.29392" result="effect1_foregroundBlur_5_70"/>
</filter>
<filter id="filter48_f_5_70" x="745.868" y="143.241" width="39.2674" height="39.3141" filterUnits="userSpaceOnUse" color-interpolation-filters="sRGB">
<feFlood flood-opacity="0" result="BackgroundImageFix"/>
<feBlend mode="normal" in="SourceGraphic" in2="BackgroundImageFix" result="shape"/>
<feGaussianBlur stdDeviation="6.29392" result="effect1_foregroundBlur_5_70"/>
</filter>
<filter id="filter49_f_5_70" x="745.868" y="115.967" width="39.2674" height="39.3141" filterUnits="userSpaceOnUse" color-interpolation-filters="sRGB">
<feFlood flood-opacity="0" result="BackgroundImageFix"/>
<feBlend mode="normal" in="SourceGraphic" in2="BackgroundImageFix" result="shape"/>
<feGaussianBlur stdDeviation="6.29392" result="effect1_foregroundBlur_5_70"/>
</filter>
<filter id="filter50_f_5_70" x="745.344" y="112.82" width="39.2674" height="39.3141" filterUnits="userSpaceOnUse" color-interpolation-filters="sRGB">
<feFlood flood-opacity="0" result="BackgroundImageFix"/>
<feBlend mode="normal" in="SourceGraphic" in2="BackgroundImageFix" result="shape"/>
<feGaussianBlur stdDeviation="6.29392" result="effect1_foregroundBlur_5_70"/>
</filter>
<filter id="filter51_f_5_70" x="735.869" y="126.34" width="49.3498" height="49.487" filterUnits="userSpaceOnUse" color-interpolation-filters="sRGB">
<feFlood flood-opacity="0" result="BackgroundImageFix"/>
<feBlend mode="normal" in="SourceGraphic" in2="BackgroundImageFix" result="shape"/>
<feGaussianBlur stdDeviation="6.29392" result="effect1_foregroundBlur_5_70"/>
</filter>
<filter id="filter52_f_5_70" x="776.731" y="122.144" width="49.3498" height="49.487" filterUnits="userSpaceOnUse" color-interpolation-filters="sRGB">
<feFlood flood-opacity="0" result="BackgroundImageFix"/>
<feBlend mode="normal" in="SourceGraphic" in2="BackgroundImageFix" result="shape"/>
<feGaussianBlur stdDeviation="6.29392" result="effect1_foregroundBlur_5_70"/>
</filter>
<filter id="filter53_f_5_70" x="738.01" y="173.677" width="84.0692" height="37.8245" filterUnits="userSpaceOnUse" color-interpolation-filters="sRGB">
<feFlood flood-opacity="0" result="BackgroundImageFix"/>
<feBlend mode="normal" in="SourceGraphic" in2="BackgroundImageFix" result="shape"/>
<feGaussianBlur stdDeviation="6.29392" result="effect1_foregroundBlur_5_70"/>
</filter>
<filter id="filter54_f_5_70" x="759.685" y="400.128" width="54.7125" height="58.8415" filterUnits="userSpaceOnUse" color-interpolation-filters="sRGB">
<feFlood flood-opacity="0" result="BackgroundImageFix"/>
<feBlend mode="normal" in="SourceGraphic" in2="BackgroundImageFix" result="shape"/>
<feGaussianBlur stdDeviation="6.73303" result="effect1_foregroundBlur_5_70"/>
</filter>
<filter id="filter55_f_5_70" x="725.749" y="428.67" width="55.0964" height="61.8065" filterUnits="userSpaceOnUse" color-interpolation-filters="sRGB">
<feFlood flood-opacity="0" result="BackgroundImageFix"/>
<feBlend mode="normal" in="SourceGraphic" in2="BackgroundImageFix" result="shape"/>
<feGaussianBlur stdDeviation="6.73303" result="effect1_foregroundBlur_5_70"/>
</filter>
<filter id="filter56_f_5_70" x="735.808" y="412.069" width="45.2633" height="43.5961" filterUnits="userSpaceOnUse" color-interpolation-filters="sRGB">
<feFlood flood-opacity="0" result="BackgroundImageFix"/>
<feBlend mode="normal" in="SourceGraphic" in2="BackgroundImageFix" result="shape"/>
<feGaussianBlur stdDeviation="6.73303" result="effect1_foregroundBlur_5_70"/>
</filter>
<filter id="filter57_f_5_70" x="779.252" y="392.688" width="58.9754" height="93.3646" filterUnits="userSpaceOnUse" color-interpolation-filters="sRGB">
<feFlood flood-opacity="0" result="BackgroundImageFix"/>
<feBlend mode="normal" in="SourceGraphic" in2="BackgroundImageFix" result="shape"/>
<feGaussianBlur stdDeviation="6.73303" result="effect1_foregroundBlur_5_70"/>
</filter>
<filter id="filter58_f_5_70" x="776.421" y="391.325" width="50.2175" height="50.2175" filterUnits="userSpaceOnUse" color-interpolation-filters="sRGB">
<feFlood flood-opacity="0" result="BackgroundImageFix"/>
<feBlend mode="normal" in="SourceGraphic" in2="BackgroundImageFix" result="shape"/>
<feGaussianBlur stdDeviation="6.73303" result="effect1_foregroundBlur_5_70"/>
</filter>
<clipPath id="clip0_5_70">
<rect width="1463" height="86" fill="white" transform="translate(31 211)"/>
</clipPath>
<clipPath id="clip1_5_70">
<rect width="974" height="86" fill="white" transform="translate(66 19)"/>
</clipPath>
<clipPath id="clip2_5_70">
<rect width="1053" height="86" fill="white" transform="translate(441 307)"/>
</clipPath>
<clipPath id="clip3_5_70">
<rect width="1026" height="86" fill="white" transform="translate(468 115)"/>
</clipPath>
<clipPath id="clip4_5_70">
<rect width="676" height="86" fill="white" transform="translate(288 403)"/>
</clipPath>
</defs>
</svg>
